<svg width="206" height="59" viewBox="0 0 206 59" fill="none" xmlns="http://www.w3.org/2000/svg">
<path opacity="0.2" d="M45.9556 32.9934V42.8915C45.9556 43.329 45.7818 43.7486 45.4724 44.058C45.163 44.3673 44.7434 44.5411 44.3059 44.5411H11.3125C10.875 44.5411 10.4554 44.3673 10.146 44.058C9.83663 43.7486 9.66283 43.329 9.66283 42.8915V32.9934C9.66283 32.5559 9.83663 32.1363 10.146 31.827C10.4554 31.5176 10.875 31.3438 11.3125 31.3438H44.3059C44.7434 31.3438 45.163 31.5176 45.4724 31.827C45.7818 32.1363 45.9556 32.5559 45.9556 32.9934ZM27.8092 18.1464C29.1143 18.1464 30.3901 17.7594 31.4752 17.0343C32.5604 16.3093 33.4062 15.2787 33.9056 14.0729C34.405 12.8672 34.5357 11.5404 34.2811 10.2604C34.0265 8.98036 33.398 7.80459 32.4752 6.88175C31.5523 5.95891 30.3766 5.33044 29.0965 5.07583C27.8165 4.82122 26.4898 4.95189 25.284 5.45133C24.0782 5.95077 23.0477 6.79654 22.3226 7.88169C21.5975 8.96684 21.2105 10.2426 21.2105 11.5477C21.2105 13.2978 21.9057 14.9762 23.1432 16.2137C24.3807 17.4512 26.0591 18.1464 27.8092 18.1464Z" fill="#FF4444"/>
<path d="M44.3059 29.6941H29.4589V19.629C31.4616 19.2202 33.2413 18.0823 34.4528 16.436C35.6642 14.7896 36.2212 12.752 36.0158 10.7183C35.8103 8.68458 34.8571 6.79959 33.3408 5.42878C31.8245 4.05796 29.8533 3.29898 27.8092 3.29898C25.7651 3.29898 23.7939 4.05796 22.2776 5.42878C20.7613 6.79959 19.8081 8.68458 19.6026 10.7183C19.3972 12.752 19.9542 14.7896 21.1657 16.436C22.3771 18.0823 24.1568 19.2202 26.1595 19.629V29.6941H11.3125C10.4375 29.6941 9.59825 30.0417 8.97951 30.6605C8.36076 31.2792 8.01315 32.1184 8.01315 32.9934V42.8915C8.01315 43.7665 8.36076 44.6057 8.97951 45.2244C9.59825 45.8432 10.4375 46.1908 11.3125 46.1908H44.3059C45.181 46.1908 46.0202 45.8432 46.6389 45.2244C47.2576 44.6057 47.6053 43.7665 47.6053 42.8915V32.9934C47.6053 32.1184 47.2576 31.2792 46.6389 30.6605C46.0202 30.0417 45.181 29.6941 44.3059 29.6941ZM22.8602 11.5477C22.8602 10.5689 23.1504 9.61205 23.6943 8.79819C24.2381 7.98433 25.011 7.35 25.9153 6.97542C26.8196 6.60084 27.8147 6.50284 28.7747 6.6938C29.7347 6.88475 30.6166 7.3561 31.3087 8.04823C32.0008 8.74037 32.4722 9.6222 32.6631 10.5822C32.8541 11.5422 32.7561 12.5373 32.3815 13.4416C32.0069 14.3459 31.3726 15.1189 30.5587 15.6627C29.7449 16.2065 28.788 16.4967 27.8092 16.4967C26.4966 16.4967 25.2378 15.9753 24.3097 15.0472C23.3816 14.1191 22.8602 12.8603 22.8602 11.5477ZM44.3059 42.8915H11.3125V32.9934H44.3059V42.8915ZM36.0576 23.0954H42.6562C43.0938 23.0954 43.5134 23.2692 43.8227 23.5786C44.1321 23.888 44.3059 24.3076 44.3059 24.7451C44.3059 25.1826 44.1321 25.6022 43.8227 25.9116C43.5134 26.221 43.0938 26.3948 42.6562 26.3948H36.0576C35.62 26.3948 35.2004 26.221 34.8911 25.9116C34.5817 25.6022 34.4079 25.1826 34.4079 24.7451C34.4079 24.3076 34.5817 23.888 34.8911 23.5786C35.2004 23.2692 35.62 23.0954 36.0576 23.0954Z" fill="#FF4444"/>
<path d="M68.8504 43.6982C65.6468 43.6982 63.1414 43.0411 61.3343 41.7268C59.5271 40.4125 58.5688 38.5642 58.4592 36.182H64.2915C64.401 36.894 64.8254 37.5374 65.5647 38.1124C66.3314 38.6601 67.4677 38.9339 68.9737 38.9339C70.1237 38.9339 71.0683 38.7422 71.8076 38.3589C72.5743 37.9481 72.9577 37.3731 72.9577 36.6338C72.9577 35.9767 72.6701 35.4564 72.0951 35.0731C71.5201 34.6624 70.4933 34.3749 69.0147 34.2106L67.2486 34.0463C64.5379 33.7725 62.498 33.0195 61.1289 31.7873C59.7872 30.5552 59.1164 28.9807 59.1164 27.0641C59.1164 25.4759 59.5134 24.1479 60.3075 23.0801C61.1015 22.0122 62.1968 21.2044 63.5932 20.6568C65.0171 20.1092 66.6326 19.8354 68.4397 19.8354C71.3422 19.8354 73.6833 20.4788 75.463 21.7658C77.2428 23.0253 78.1738 24.8599 78.2559 27.2694H72.4237C72.3142 26.5301 71.9309 25.914 71.2737 25.4212C70.6165 24.9009 69.6445 24.6408 68.3576 24.6408C67.3445 24.6408 66.5367 24.8325 65.9343 25.2158C65.3319 25.5991 65.0308 26.1194 65.0308 26.7765C65.0308 27.4063 65.2909 27.8855 65.8111 28.2141C66.3314 28.5426 67.1802 28.7754 68.3576 28.9123L70.1237 29.0766C72.8892 29.3778 75.0386 30.1445 76.572 31.3766C78.1053 32.6088 78.872 34.2653 78.872 36.3463C78.872 37.8523 78.4613 39.1666 77.6399 40.2892C76.8184 41.3845 75.6547 42.2333 74.1487 42.8357C72.6428 43.4107 70.8767 43.6982 68.8504 43.6982ZM93.3567 43.2875C91.084 43.2875 89.2495 43.0137 87.853 42.4661C86.4566 41.8911 85.4298 40.9464 84.7726 39.6321C84.1428 38.2904 83.8279 36.4832 83.8279 34.2106V14.4139H89.9477V34.457C89.9477 35.5249 90.2215 36.3463 90.7691 36.9213C91.3441 37.469 92.1519 37.7428 93.1924 37.7428H96.5192V43.2875H93.3567ZM80.419 25.298V20.4925H96.5192V25.298H80.419ZM114.453 43V36.3463H113.344V29.1177C113.344 27.9676 113.07 27.1051 112.523 26.5301C111.975 25.9551 111.099 25.6676 109.894 25.6676C109.292 25.6676 108.497 25.6813 107.512 25.7087C106.526 25.7361 105.513 25.7771 104.472 25.8319C103.432 25.8867 102.487 25.9414 101.638 25.9962V20.4515C102.268 20.3967 103.008 20.3419 103.856 20.2872C104.705 20.2324 105.581 20.1913 106.485 20.1639C107.389 20.1366 108.237 20.1229 109.031 20.1229C111.331 20.1229 113.262 20.4515 114.823 21.1086C116.411 21.7658 117.615 22.7652 118.437 24.1069C119.258 25.4212 119.669 27.1188 119.669 29.1998V43H114.453ZM107.265 43.575C105.65 43.575 104.226 43.2875 102.994 42.7125C101.789 42.1375 100.844 41.316 100.16 40.2482C99.4753 39.1529 99.1331 37.8523 99.1331 36.3463C99.1331 34.7034 99.5575 33.3618 100.406 32.3213C101.255 31.2534 102.446 30.473 103.98 29.9802C105.513 29.4599 107.279 29.1998 109.278 29.1998H114.083V32.8552H109.237C108.087 32.8552 107.197 33.1427 106.567 33.7177C105.965 34.2653 105.664 35.0183 105.664 35.9767C105.664 36.8803 105.965 37.6196 106.567 38.1946C107.197 38.7422 108.087 39.016 109.237 39.016C109.976 39.016 110.633 38.8928 111.208 38.6464C111.811 38.3726 112.303 37.9208 112.687 37.291C113.07 36.6612 113.289 35.785 113.344 34.6624L114.905 36.3053C114.768 37.866 114.384 39.1803 113.755 40.2482C113.152 41.316 112.303 42.1375 111.208 42.7125C110.14 43.2875 108.826 43.575 107.265 43.575ZM133.788 43.6982C130.584 43.6982 128.079 43.0411 126.271 41.7268C124.464 40.4125 123.506 38.5642 123.396 36.182H129.229C129.338 36.894 129.763 37.5374 130.502 38.1124C131.268 38.6601 132.405 38.9339 133.911 38.9339C135.061 38.9339 136.005 38.7422 136.745 38.3589C137.511 37.9481 137.895 37.3731 137.895 36.6338C137.895 35.9767 137.607 35.4564 137.032 35.0731C136.457 34.6624 135.43 34.3749 133.952 34.2106L132.186 34.0463C129.475 33.7725 127.435 33.0195 126.066 31.7873C124.724 30.5552 124.054 28.9807 124.054 27.0641C124.054 25.4759 124.451 24.1479 125.245 23.0801C126.039 22.0122 127.134 21.2044 128.53 20.6568C129.954 20.1092 131.57 19.8354 133.377 19.8354C136.279 19.8354 138.62 20.4788 140.4 21.7658C142.18 23.0253 143.111 24.8599 143.193 27.2694H137.361C137.251 26.5301 136.868 25.914 136.211 25.4212C135.554 24.9009 134.582 24.6408 133.295 24.6408C132.282 24.6408 131.474 24.8325 130.871 25.2158C130.269 25.5991 129.968 26.1194 129.968 26.7765C129.968 27.4063 130.228 27.8855 130.748 28.2141C131.268 28.5426 132.117 28.7754 133.295 28.9123L135.061 29.0766C137.826 29.3778 139.976 30.1445 141.509 31.3766C143.042 32.6088 143.809 34.2653 143.809 36.3463C143.809 37.8523 143.398 39.1666 142.577 40.2892C141.756 41.3845 140.592 42.2333 139.086 42.8357C137.58 43.4107 135.814 43.6982 133.788 43.6982ZM148.067 43V13.0174H154.638V30.3087H153.653C153.653 28.0361 153.94 26.1194 154.515 24.5587C155.09 22.9979 155.939 21.8205 157.062 21.0265C158.184 20.205 159.594 19.7943 161.292 19.7943H161.58C164.071 19.7943 165.974 20.6842 167.289 22.464C168.603 24.2164 169.26 26.7902 169.26 30.1855V43H162.688V29.7748C162.688 28.5426 162.319 27.5569 161.58 26.8176C160.868 26.0509 159.923 25.6676 158.746 25.6676C157.513 25.6676 156.514 26.0646 155.747 26.8587C155.008 27.6527 154.638 28.7069 154.638 30.0212V43H148.067ZM175.928 43V20.4925H182.499V43H175.928ZM172.93 25.339V20.4925H182.499V25.339H172.93ZM178.474 18.2746C177.242 18.2746 176.325 17.9597 175.722 17.33C175.147 16.6728 174.86 15.8514 174.86 14.8657C174.86 13.8525 175.147 13.0311 175.722 12.4013C176.325 11.7442 177.242 11.4156 178.474 11.4156C179.706 11.4156 180.61 11.7442 181.185 12.4013C181.787 13.0311 182.089 13.8525 182.089 14.8657C182.089 15.8514 181.787 16.6728 181.185 17.33C180.61 17.9597 179.706 18.2746 178.474 18.2746ZM198.804 43.2875C196.532 43.2875 194.697 43.0137 193.301 42.4661C191.904 41.8911 190.877 40.9464 190.22 39.6321C189.59 38.2904 189.276 36.4832 189.276 34.2106V14.4139H195.395V34.457C195.395 35.5249 195.669 36.3463 196.217 36.9213C196.792 37.469 197.6 37.7428 198.64 37.7428H201.967V43.2875H198.804ZM185.867 25.298V20.4925H201.967V25.298H185.867Z" fill="#FF4444"/>
</svg>
