<svg width="1090" height="437" viewBox="0 0 1090 437" fill="none" xmlns="http://www.w3.org/2000/svg">
<g filter="url(#filter0_d_129_356)">
<rect x="138" y="103" width="241" height="241" rx="30" fill="white"/>
</g>
<path opacity="0.2" d="M214 178L242.125 262.375H185.875L214 178ZM309.625 186.438C309.625 180.319 307.811 174.337 304.411 169.25C301.012 164.162 296.18 160.197 290.527 157.855C284.874 155.513 278.653 154.901 272.652 156.094C266.651 157.288 261.138 160.235 256.811 164.561C252.485 168.888 249.538 174.401 248.344 180.402C247.151 186.403 247.763 192.624 250.105 198.277C252.447 203.93 256.412 208.762 261.5 212.161C266.587 215.561 272.569 217.375 278.688 217.375C282.75 217.375 286.773 216.575 290.527 215.02C294.28 213.465 297.691 211.186 300.564 208.314C303.436 205.441 305.715 202.03 307.27 198.277C308.825 194.523 309.625 190.5 309.625 186.438ZM264.625 239.875V279.25H326.5V239.875H264.625Z" fill="#FF4444"/>
<path d="M326.5 234.25H264.625C263.134 234.25 261.703 234.843 260.648 235.898C259.593 236.952 259 238.383 259 239.875V279.25C259 280.742 259.593 282.173 260.648 283.227C261.703 284.282 263.134 284.875 264.625 284.875H326.5C327.992 284.875 329.423 284.282 330.478 283.227C331.533 282.173 332.125 280.742 332.125 279.25V239.875C332.125 238.383 331.533 236.952 330.478 235.898C329.423 234.843 327.992 234.25 326.5 234.25ZM320.875 273.625H270.25V245.5H320.875V273.625ZM219.337 176.221C218.964 175.101 218.248 174.126 217.29 173.436C216.332 172.745 215.181 172.374 214 172.374C212.82 172.374 211.669 172.745 210.711 173.436C209.753 174.126 209.037 175.101 208.664 176.221L180.539 260.596C180.257 261.442 180.18 262.342 180.314 263.223C180.449 264.104 180.791 264.941 181.312 265.664C181.833 266.387 182.519 266.976 183.312 267.382C184.105 267.788 184.984 268 185.875 268H242.125C243.017 268 243.895 267.788 244.689 267.382C245.482 266.976 246.168 266.387 246.689 265.664C247.21 264.941 247.552 264.104 247.687 263.223C247.821 262.342 247.744 261.442 247.462 260.596L219.337 176.221ZM193.68 256.75L214 195.789L234.321 256.75H193.68ZM315.25 186.438C315.25 179.206 313.106 172.137 309.089 166.124C305.071 160.112 299.361 155.425 292.68 152.658C285.999 149.891 278.647 149.167 271.555 150.578C264.462 151.988 257.948 155.471 252.834 160.584C247.721 165.697 244.239 172.212 242.828 179.305C241.417 186.397 242.141 193.748 244.909 200.429C247.676 207.11 252.362 212.821 258.375 216.838C264.388 220.856 271.457 223 278.688 223C288.381 222.989 297.675 219.133 304.529 212.279C311.384 205.424 315.239 196.131 315.25 186.438ZM253.375 186.438C253.375 181.431 254.86 176.537 257.641 172.375C260.423 168.212 264.376 164.968 269.001 163.052C273.627 161.136 278.716 160.635 283.626 161.611C288.536 162.588 293.047 164.999 296.587 168.539C300.127 172.079 302.537 176.589 303.514 181.499C304.491 186.409 303.989 191.499 302.074 196.124C300.158 200.749 296.913 204.703 292.751 207.484C288.588 210.265 283.694 211.75 278.688 211.75C271.975 211.75 265.536 209.083 260.789 204.336C256.042 199.589 253.375 193.151 253.375 186.438Z" fill="#FF4444"/>
<g filter="url(#filter1_d_129_356)">
<rect x="48" y="44" width="267" height="267" rx="33.2365" fill="white"/>
</g>
<path opacity="0.2" d="M132.199 127.091L163.359 220.569H101.04L132.199 127.091ZM238.141 136.439C238.141 129.66 236.13 123.033 232.364 117.397C228.598 111.76 223.245 107.367 216.982 104.773C210.719 102.179 203.827 101.5 197.179 102.822C190.53 104.145 184.423 107.409 179.629 112.203C174.836 116.996 171.571 123.104 170.249 129.752C168.926 136.401 169.605 143.293 172.199 149.556C174.794 155.819 179.187 161.172 184.823 164.938C190.46 168.704 197.087 170.714 203.866 170.714C208.367 170.714 212.824 169.828 216.982 168.105C221.14 166.383 224.919 163.858 228.102 160.675C231.284 157.493 233.809 153.714 235.532 149.556C237.254 145.397 238.141 140.94 238.141 136.439ZM188.286 195.642V239.265H256.836V195.642H188.286Z" fill="#FF4444"/>
<path d="M256.837 189.41H188.286C186.633 189.41 185.048 190.066 183.88 191.235C182.711 192.404 182.054 193.989 182.054 195.642V239.265C182.054 240.917 182.711 242.502 183.88 243.671C185.048 244.84 186.633 245.496 188.286 245.496H256.837C258.489 245.496 260.074 244.84 261.243 243.671C262.412 242.502 263.068 240.917 263.068 239.265V195.642C263.068 193.989 262.412 192.404 261.243 191.235C260.074 190.066 258.489 189.41 256.837 189.41ZM250.605 233.033H194.518V201.873H250.605V233.033ZM138.112 125.12C137.699 123.879 136.905 122.8 135.844 122.035C134.783 121.27 133.508 120.858 132.2 120.858C130.891 120.858 129.616 121.27 128.555 122.035C127.494 122.8 126.701 123.879 126.287 125.12L95.128 218.598C94.8157 219.535 94.7305 220.533 94.8794 221.509C95.0283 222.485 95.4071 223.412 95.9845 224.213C96.5619 225.014 97.3215 225.666 98.2005 226.116C99.0795 226.566 100.053 226.801 101.04 226.801H163.359C164.346 226.801 165.32 226.566 166.199 226.116C167.078 225.666 167.837 225.014 168.415 224.213C168.992 223.412 169.371 222.485 169.52 221.509C169.669 220.533 169.584 219.535 169.271 218.598L138.112 125.12ZM109.687 214.337L132.2 146.8L154.712 214.337H109.687ZM244.373 136.439C244.373 128.428 241.997 120.596 237.546 113.935C233.095 107.273 226.769 102.081 219.367 99.0155C211.966 95.9496 203.821 95.1474 195.963 96.7104C188.106 98.2734 180.888 102.131 175.223 107.796C169.558 113.461 165.7 120.679 164.137 128.537C162.574 136.394 163.376 144.539 166.442 151.94C169.508 159.342 174.7 165.668 181.361 170.119C188.023 174.57 195.854 176.946 203.866 176.946C214.605 176.934 224.901 172.662 232.495 165.068C240.089 157.474 244.361 147.178 244.373 136.439ZM175.823 136.439C175.823 130.893 177.467 125.471 180.549 120.859C183.63 116.247 188.01 112.653 193.134 110.53C198.258 108.408 203.897 107.853 209.337 108.935C214.777 110.017 219.774 112.688 223.695 116.609C227.617 120.531 230.288 125.528 231.37 130.968C232.452 136.408 231.897 142.047 229.775 147.171C227.652 152.295 224.058 156.675 219.446 159.756C214.834 162.838 209.412 164.482 203.866 164.482C196.428 164.482 189.295 161.528 184.036 156.269C178.777 151.01 175.823 143.877 175.823 136.439Z" fill="#FF4444"/>
<path d="M637.854 228.802C639.402 227.226 639.379 224.694 637.802 223.146L612.115 197.924C610.539 196.376 608.006 196.399 606.459 197.975C604.911 199.551 604.934 202.084 606.51 203.632L629.343 226.052L606.924 248.885C605.376 250.461 605.399 252.994 606.975 254.541C608.551 256.089 611.084 256.066 612.632 254.49L637.854 228.802ZM416.037 232L635.036 230L634.963 222L415.963 224L416.037 232Z" fill="black"/>
<path d="M107.336 421.698C104.269 421.698 101.86 421.055 100.107 419.768C98.3822 418.454 97.4786 416.646 97.3964 414.346H102.53C102.613 415.113 103.037 415.811 103.804 416.441C104.57 417.071 105.775 417.386 107.418 417.386C108.787 417.386 109.869 417.139 110.663 416.646C111.484 416.153 111.895 415.483 111.895 414.634C111.895 413.895 111.58 413.306 110.95 412.868C110.348 412.43 109.307 412.142 107.829 412.005L105.857 411.8C103.366 411.526 101.449 410.814 100.107 409.664C98.7655 408.514 98.0947 406.981 98.0947 405.064C98.0947 403.531 98.478 402.244 99.2447 401.203C100.011 400.163 101.066 399.382 102.407 398.862C103.776 398.315 105.337 398.041 107.089 398.041C109.828 398.041 112.045 398.643 113.743 399.848C115.441 401.053 116.331 402.819 116.413 405.146H111.279C111.224 404.38 110.841 403.722 110.129 403.175C109.417 402.627 108.39 402.353 107.048 402.353C105.844 402.353 104.913 402.586 104.255 403.052C103.598 403.517 103.27 404.119 103.27 404.859C103.27 405.571 103.53 406.118 104.05 406.502C104.598 406.885 105.474 407.145 106.679 407.282L108.65 407.487C111.279 407.761 113.332 408.487 114.811 409.664C116.317 410.842 117.07 412.43 117.07 414.428C117.07 415.907 116.659 417.194 115.838 418.289C115.044 419.357 113.921 420.192 112.47 420.795C111.019 421.397 109.307 421.698 107.336 421.698ZM121.786 429.214V398.698H126.304V408.309L125.606 408.268C125.715 405.995 126.181 404.092 127.002 402.559C127.851 401.025 128.974 399.889 130.37 399.15C131.767 398.383 133.327 398 135.052 398C136.641 398 138.064 398.287 139.324 398.862C140.611 399.437 141.706 400.245 142.61 401.285C143.541 402.326 144.253 403.544 144.745 404.941C145.238 406.31 145.485 407.788 145.485 409.377V410.239C145.485 411.855 145.238 413.361 144.745 414.757C144.28 416.126 143.582 417.345 142.651 418.412C141.747 419.453 140.652 420.274 139.365 420.877C138.078 421.452 136.641 421.739 135.052 421.739C133.382 421.739 131.849 421.397 130.452 420.712C129.083 420.001 127.974 418.919 127.126 417.468C126.277 415.989 125.798 414.086 125.688 411.759L127.495 414.511V429.214H121.786ZM133.615 416.934C134.847 416.934 135.915 416.633 136.819 416.03C137.75 415.428 138.475 414.593 138.995 413.525C139.516 412.43 139.776 411.197 139.776 409.828C139.776 408.405 139.516 407.172 138.995 406.132C138.475 405.091 137.75 404.284 136.819 403.709C135.915 403.106 134.847 402.805 133.615 402.805C132.492 402.805 131.452 403.052 130.493 403.544C129.562 404.037 128.796 404.763 128.193 405.721C127.618 406.68 127.331 407.83 127.331 409.171V410.814C127.331 412.101 127.632 413.196 128.234 414.1C128.837 415.003 129.617 415.702 130.576 416.195C131.534 416.687 132.547 416.934 133.615 416.934ZM150.505 421V398.698H155.022V408.144H154.899C154.899 404.941 155.584 402.518 156.953 400.875C158.322 399.232 160.334 398.41 162.99 398.41H163.812V403.38H162.251C160.334 403.38 158.842 403.9 157.774 404.941C156.734 405.954 156.214 407.433 156.214 409.377V421H150.505ZM168.699 421V398.698H174.408V421H168.699ZM165.578 402.969V398.698H174.408V402.969H165.578ZM170.794 396.028C169.671 396.028 168.836 395.741 168.288 395.166C167.768 394.563 167.508 393.824 167.508 392.948C167.508 392.017 167.768 391.264 168.288 390.689C168.836 390.114 169.671 389.826 170.794 389.826C171.916 389.826 172.738 390.114 173.258 390.689C173.778 391.264 174.038 392.017 174.038 392.948C174.038 393.824 173.778 394.563 173.258 395.166C172.738 395.741 171.916 396.028 170.794 396.028ZM190.681 421.288C188.627 421.288 186.929 421.027 185.588 420.507C184.273 419.96 183.288 419.056 182.631 417.796C181.973 416.509 181.645 414.784 181.645 412.621L181.686 392.414H187.025L186.984 412.991C186.984 414.086 187.272 414.935 187.847 415.537C188.449 416.112 189.298 416.4 190.393 416.4H193.884V421.288H190.681ZM178.113 402.887V398.698H193.884V402.887H178.113ZM208.536 421.78C206.619 421.78 204.935 421.452 203.484 420.795C202.06 420.137 200.869 419.261 199.911 418.166C198.98 417.043 198.268 415.798 197.775 414.428C197.31 413.059 197.077 411.663 197.077 410.239V409.459C197.077 407.98 197.31 406.556 197.775 405.187C198.268 403.791 198.98 402.559 199.911 401.491C200.869 400.396 202.047 399.533 203.443 398.903C204.84 398.246 206.455 397.918 208.29 397.918C210.699 397.918 212.712 398.451 214.327 399.519C215.97 400.56 217.202 401.943 218.024 403.668C218.845 405.365 219.256 407.2 219.256 409.171V411.225H199.5V407.734H215.683L213.917 409.459C213.917 408.035 213.711 406.816 213.3 405.803C212.89 404.79 212.26 404.01 211.411 403.462C210.59 402.915 209.549 402.641 208.29 402.641C207.03 402.641 205.962 402.928 205.086 403.503C204.21 404.078 203.539 404.913 203.074 406.009C202.635 407.077 202.416 408.364 202.416 409.869C202.416 411.266 202.635 412.512 203.074 413.607C203.512 414.675 204.182 415.524 205.086 416.153C205.99 416.756 207.14 417.057 208.536 417.057C209.933 417.057 211.069 416.783 211.945 416.236C212.821 415.661 213.383 414.962 213.629 414.141H218.886C218.558 415.674 217.928 417.016 216.997 418.166C216.066 419.316 214.875 420.206 213.424 420.836C212 421.465 210.371 421.78 208.536 421.78ZM222.76 421V414.428H229.168V421H222.76ZM234.694 429.214V398.698H239.212V408.309L238.514 408.268C238.623 405.995 239.089 404.092 239.91 402.559C240.759 401.025 241.882 399.889 243.278 399.15C244.675 398.383 246.235 398 247.96 398C249.549 398 250.972 398.287 252.232 398.862C253.519 399.437 254.614 400.245 255.518 401.285C256.449 402.326 257.161 403.544 257.653 404.941C258.146 406.31 258.393 407.788 258.393 409.377V410.239C258.393 411.855 258.146 413.361 257.653 414.757C257.188 416.126 256.49 417.345 255.559 418.412C254.655 419.453 253.56 420.274 252.273 420.877C250.986 421.452 249.549 421.739 247.96 421.739C246.29 421.739 244.757 421.397 243.36 420.712C241.991 420.001 240.882 418.919 240.034 417.468C239.185 415.989 238.706 414.086 238.596 411.759L240.403 414.511V429.214H234.694ZM246.523 416.934C247.755 416.934 248.823 416.633 249.727 416.03C250.657 415.428 251.383 414.593 251.903 413.525C252.424 412.43 252.684 411.197 252.684 409.828C252.684 408.405 252.424 407.172 251.903 406.132C251.383 405.091 250.657 404.284 249.727 403.709C248.823 403.106 247.755 402.805 246.523 402.805C245.4 402.805 244.36 403.052 243.401 403.544C242.47 404.037 241.704 404.763 241.101 405.721C240.526 406.68 240.239 407.83 240.239 409.171V410.814C240.239 412.101 240.54 413.196 241.142 414.1C241.745 415.003 242.525 415.702 243.484 416.195C244.442 416.687 245.455 416.934 246.523 416.934ZM263.412 421V398.698H267.93V408.268H267.52C267.52 405.995 267.821 404.106 268.423 402.6C269.026 401.066 269.916 399.916 271.093 399.15C272.298 398.383 273.79 398 275.57 398H275.816C278.472 398 280.485 398.862 281.854 400.587C283.223 402.285 283.907 404.831 283.907 408.227V421H278.198V407.734C278.198 406.365 277.801 405.256 277.007 404.407C276.241 403.558 275.173 403.134 273.804 403.134C272.407 403.134 271.271 403.572 270.395 404.448C269.546 405.297 269.122 406.447 269.122 407.898V421H263.412ZM298.752 429.789C297.685 429.789 296.589 429.748 295.467 429.666C294.371 429.584 293.345 429.475 292.386 429.338V424.573C293.372 424.683 294.426 424.779 295.549 424.861C296.671 424.97 297.726 425.025 298.711 425.025C300.546 425.025 302.024 424.806 303.147 424.368C304.297 423.93 305.132 423.232 305.653 422.273C306.2 421.342 306.474 420.151 306.474 418.7V414.305L307.706 411.512C307.624 413.566 307.2 415.318 306.433 416.77C305.666 418.193 304.626 419.289 303.311 420.055C301.997 420.795 300.477 421.164 298.752 421.164C297.219 421.164 295.823 420.877 294.563 420.302C293.331 419.727 292.263 418.933 291.359 417.92C290.483 416.906 289.799 415.715 289.306 414.346C288.813 412.977 288.567 411.512 288.567 409.952V409.089C288.567 407.528 288.813 406.077 289.306 404.735C289.826 403.366 290.552 402.175 291.483 401.162C292.414 400.149 293.523 399.369 294.809 398.821C296.096 398.273 297.52 398 299.081 398C300.916 398 302.504 398.397 303.845 399.191C305.214 399.985 306.282 401.135 307.049 402.641C307.816 404.147 308.24 405.995 308.322 408.186L307.336 408.35V398.698H311.854V418.371C311.854 421.082 311.389 423.273 310.458 424.943C309.527 426.613 308.089 427.832 306.145 428.598C304.229 429.392 301.764 429.789 298.752 429.789ZM300.395 416.277C301.491 416.277 302.49 416.03 303.394 415.537C304.297 415.045 305.023 414.333 305.57 413.402C306.118 412.471 306.392 411.348 306.392 410.034V408.596C306.392 407.337 306.104 406.269 305.529 405.393C304.982 404.516 304.256 403.859 303.352 403.421C302.449 402.956 301.463 402.723 300.395 402.723C299.191 402.723 298.123 403.01 297.192 403.585C296.288 404.133 295.576 404.913 295.056 405.927C294.536 406.94 294.276 408.144 294.276 409.541C294.276 410.91 294.536 412.101 295.056 413.114C295.576 414.127 296.288 414.908 297.192 415.455C298.123 416.003 299.191 416.277 300.395 416.277Z" fill="black"/>
<path opacity="0.2" d="M1065.56 211.5C1065.56 243.906 1052.69 274.985 1029.78 297.9C1006.86 320.814 975.782 333.688 943.376 333.688H808.97C796.842 333.673 784.856 331.079 773.807 326.078C762.759 321.077 752.9 313.784 744.885 304.682C736.87 295.581 730.882 284.878 727.319 273.286C723.756 261.693 722.698 249.476 724.218 237.443C725.737 225.411 729.797 213.84 736.13 203.496C742.462 193.153 750.922 184.275 760.947 177.451C770.973 170.627 782.335 166.012 794.28 163.915C806.225 161.817 818.479 162.283 830.23 165.283V165.435C840.922 139.209 860.393 117.512 885.313 104.054C910.232 90.5954 939.054 86.2116 966.848 91.6522C994.642 97.0927 1019.68 112.02 1037.69 133.88C1055.7 155.741 1065.55 183.178 1065.56 211.5Z" fill="#FF4444"/>
<path d="M971.386 269.02L943.375 240.993V333.688C943.375 336.928 942.088 340.036 939.796 342.327C937.505 344.619 934.397 345.906 931.156 345.906C927.916 345.906 924.808 344.619 922.516 342.327C920.225 340.036 918.937 336.928 918.937 333.688V240.993L890.926 269.02C889.791 270.155 888.443 271.056 886.96 271.67C885.476 272.284 883.887 272.601 882.281 272.601C880.676 272.601 879.086 272.284 877.603 271.67C876.119 271.056 874.772 270.155 873.636 269.02C872.501 267.885 871.601 266.537 870.986 265.054C870.372 263.57 870.056 261.98 870.056 260.375C870.056 258.77 870.372 257.18 870.986 255.696C871.601 254.213 872.501 252.865 873.636 251.73L922.511 202.855C923.646 201.719 924.994 200.818 926.477 200.203C927.961 199.588 929.551 199.272 931.156 199.272C932.762 199.272 934.352 199.588 935.835 200.203C937.319 200.818 938.666 201.719 939.801 202.855L988.676 251.73C989.811 252.865 990.712 254.213 991.326 255.696C991.941 257.18 992.257 258.77 992.257 260.375C992.257 261.98 991.941 263.57 991.326 265.054C990.712 266.537 989.811 267.885 988.676 269.02C987.541 270.155 986.193 271.056 984.71 271.67C983.226 272.284 981.637 272.601 980.031 272.601C978.426 272.601 976.836 272.284 975.353 271.67C973.869 271.056 972.522 270.155 971.386 269.02ZM943.375 77.0938C918.411 77.1126 893.945 84.077 872.714 97.2079C851.483 110.339 834.324 129.118 823.158 151.445C809.863 149.491 796.307 150.3 783.339 153.82C770.37 157.34 758.267 163.497 747.784 171.905C737.302 180.313 728.665 190.792 722.415 202.688C716.164 214.584 712.433 227.64 711.455 241.043C710.478 254.445 712.274 267.905 716.731 280.582C721.189 293.259 728.212 304.881 737.363 314.722C746.514 324.562 757.596 332.411 769.916 337.776C782.237 343.142 795.531 345.909 808.969 345.906H870.062C873.303 345.906 876.411 344.619 878.702 342.327C880.994 340.036 882.281 336.928 882.281 333.688C882.281 330.447 880.994 327.339 878.702 325.048C876.411 322.756 873.303 321.469 870.062 321.469H808.969C789.525 321.469 770.878 313.745 757.129 299.996C743.38 286.247 735.656 267.6 735.656 248.156C735.656 228.713 743.38 210.065 757.129 196.316C770.878 182.568 789.525 174.844 808.969 174.844C810.649 174.844 812.329 174.844 813.994 175.027C810.654 186.897 808.963 199.169 808.969 211.5C808.969 214.741 810.256 217.849 812.548 220.14C814.839 222.431 817.947 223.719 821.187 223.719C824.428 223.719 827.536 222.431 829.827 220.14C832.119 217.849 833.406 214.741 833.406 211.5C833.409 191.674 838.772 172.218 848.926 155.191C859.081 138.163 873.65 124.198 891.091 114.772C908.533 105.346 928.198 100.811 948.006 101.645C967.814 102.48 987.028 108.655 1003.61 119.515C1020.2 130.375 1033.54 145.517 1042.23 163.339C1050.91 181.16 1054.62 200.999 1052.96 220.754C1051.29 240.51 1044.31 259.447 1032.77 275.563C1021.22 291.68 1005.53 304.374 987.362 312.305C984.782 313.423 982.667 315.397 981.373 317.894C980.08 320.391 979.687 323.258 980.261 326.011C980.835 328.763 982.341 331.234 984.526 333.005C986.71 334.777 989.438 335.741 992.25 335.734C993.934 335.733 995.599 335.379 997.137 334.696C1025.44 322.348 1048.64 300.629 1062.81 273.191C1076.99 245.754 1081.28 214.272 1074.97 184.041C1068.66 153.809 1052.13 126.673 1028.17 107.196C1004.2 87.7183 974.258 77.0884 943.375 77.0938Z" fill="#FF4444"/>
<defs>
<filter id="filter0_d_129_356" x="94.7" y="63.7" width="327.6" height="327.6" filterUnits="userSpaceOnUse" color-interpolation-filters="sRGB">
<feFlood flood-opacity="0" result="BackgroundImageFix"/>
<feColorMatrix in="SourceAlpha" type="matrix" values="0 0 0 0 0 0 0 0 0 0 0 0 0 0 0 0 0 0 127 0" result="hardAlpha"/>
<feOffset dy="4"/>
<feGaussianBlur stdDeviation="21.65"/>
<feComposite in2="hardAlpha" operator="out"/>
<feColorMatrix type="matrix" values="0 0 0 0 0 0 0 0 0 0 0 0 0 0 0 0 0 0 0.25 0"/>
<feBlend mode="normal" in2="BackgroundImageFix" result="effect1_dropShadow_129_356"/>
<feBlend mode="normal" in="SourceGraphic" in2="effect1_dropShadow_129_356" result="shape"/>
</filter>
<filter id="filter1_d_129_356" x="0.0286331" y="0.460168" width="362.943" height="362.943" filterUnits="userSpaceOnUse" color-interpolation-filters="sRGB">
<feFlood flood-opacity="0" result="BackgroundImageFix"/>
<feColorMatrix in="SourceAlpha" type="matrix" values="0 0 0 0 0 0 0 0 0 0 0 0 0 0 0 0 0 0 127 0" result="hardAlpha"/>
<feOffset dy="4.43154"/>
<feGaussianBlur stdDeviation="23.9857"/>
<feComposite in2="hardAlpha" operator="out"/>
<feColorMatrix type="matrix" values="0 0 0 0 0 0 0 0 0 0 0 0 0 0 0 0 0 0 0.25 0"/>
<feBlend mode="normal" in2="BackgroundImageFix" result="effect1_dropShadow_129_356"/>
<feBlend mode="normal" in="SourceGraphic" in2="effect1_dropShadow_129_356" result="shape"/>
</filter>
</defs>
</svg>
